<?xml version="1.0" encoding="UTF-8"?>
<svg id="Layer_2" data-name="Layer 2" xmlns="http://www.w3.org/2000/svg" viewBox="0 0 758.37 756.15">
  <defs>
    <style>
      .cls-1 {
        fill: #ec6543;
      }
    </style>
  </defs>
  <g id="Layer_1-2" data-name="Layer 1">
    <g id="c_orange">
      <path class="cls-1" d="M90.43,181.73c.03,6.25-5.17,11.43-11.44,11.38-6.32-.05-11.31-5.19-11.21-11.54,.09-6.05,4.77-10.67,10.97-10.82,6.62-.16,11.65,4.58,11.69,10.98Z"/>
      <path class="cls-1" d="M18.98,275.05c.95-.72,3.77-2.83,7.77-2.57,2.18,.14,4.35,1.05,6.45,2.76,4.02,3.28,5.19,7.67,3.28,12.46-2.18,5.46-6.54,7.93-12.34,7.12-2.01-.28-3.65-.96-4.98-1.97-3.66-2.76-4.23-6.99-4.36-7.96-.14-1.13-.39-3.24,.64-5.61,.99-2.29,2.6-3.53,3.54-4.24Z"/>
      <path class="cls-1" d="M224.62,73.56c-6.43-.26-11.27-5.88-10.9-12.64,.35-6.47,5.22-10.89,11.77-10.68,6.06,.19,11.31,5.59,11.26,11.57-.06,6.33-5.92,12-12.13,11.75Z"/>
      <path class="cls-1" d="M77.84,593.87c-6.25-.13-11.3-5.5-11.07-11.78,.23-6.35,5.62-11.58,11.82-10.93,6.55,.69,10.42,4.47,10.6,11.26,.17,6.32-5.19,11.57-11.35,11.44Z"/>
      <path class="cls-1" d="M370.89,10.48c6.26,.2,11.68,5.74,10.88,11.74-.85,6.36-4.36,10.43-11.29,10.45-6.47,.02-11.49-5-11.36-11.25,.14-6.24,5.4-11.14,11.77-10.94Z"/>
      <path class="cls-1" d="M681.13,613.27c-6.03,.23-11.61-5.03-11.82-11.14-.21-6.04,5.14-11.53,11.27-11.59,5.9-.06,11.19,4.95,11.29,10.68,.11,6.34-4.78,11.83-10.75,12.05Z"/>
      <path class="cls-1" d="M561.22,694.41c6.39,.19,10.78,5.23,10.45,12.01-.31,6.3-4.94,10.75-11.04,10.61-6.3-.14-11.37-5.42-11.18-11.61,.19-6.27,5.46-11.19,11.77-11.01Z"/>
      <path class="cls-1" d="M737.68,300.68c.12,5.83-4.73,11.07-10.54,11.39-6.1,.33-11.66-4.87-11.75-11-.09-6.06,4.48-10.94,10.53-11.24,6.37-.32,11.63,4.53,11.76,10.85Z"/>
      <path class="cls-1" d="M255.47,716.86c6.01-.1,11.5,5.45,11.41,11.53-.09,5.98-4.92,10.99-10.79,11.2-6.26,.22-11.77-4.86-11.91-10.97-.13-5.99,5.31-11.66,11.29-11.76Z"/>
      <path class="cls-1" d="M495.06,719.6c.12,6.58-4.51,11.62-10.79,11.75-6.12,.13-11.44-4.98-11.61-11.16-.17-6.2,4.77-11.42,11.06-11.69,6.32-.27,11.23,4.53,11.34,11.09Z"/>
      <path class="cls-1" d="M10.81,412.08c-2.08,.08-4.19-.58-5.92-1.76-2.61-1.77-4.4-4.69-4.8-7.81-.87-6.85,5.08-13.08,11.99-12.38,3.42,.35,6.61,2.4,8.43,5.32,1.02,1.64,1.63,3.56,1.53,5.49-.15,2.9-1.86,5.51-3.94,7.53-1.68,1.63-3.69,3.01-5.99,3.45-.43,.08-.86,.13-1.29,.15Z"/>
      <path class="cls-1" d="M513.39,718c.03-6.69,4.79-11.43,11.25-11.21,6.14,.21,11.35,5.7,11.14,11.72-.2,5.78-5.34,10.74-11.16,10.78-6.6,.05-11.26-4.63-11.23-11.29Z"/>
      <path class="cls-1" d="M486.13,9.89c6.17-.15,11.17,4.86,11.3,11.32,.13,6.54-4.59,11.5-10.98,11.52-6.22,.02-11.33-5-11.46-11.26-.13-6.13,4.97-11.43,11.14-11.58Z"/>
      <path class="cls-1" d="M754.83,457.83c-.11,5.85-5.83,11.25-11.78,11.12-6.01-.14-11.11-5.62-10.94-11.75,.18-6.53,4.98-11.11,11.51-10.98,5.93,.11,11.31,5.69,11.21,11.62Z"/>
      <path class="cls-1" d="M30.34,438.77c-.23,6.56-4.9,10.97-11.54,10.87-6.16-.09-10.66-4.92-10.3-11.04,.35-5.81,5.81-11.15,11.05-10.79,6.08,.41,10.98,5.39,10.78,10.96Z"/>
      <path class="cls-1" d="M306.31,736.68c.04,6.45-4.83,11.21-11.36,11.1-5.87-.09-10.93-5-11.09-10.76-.18-6.14,5.13-11.79,11.02-11.74,6.08,.05,11.4,5.35,11.43,11.4Z"/>
      <path class="cls-1" d="M105.69,143.07c6.48,.13,10.71,4.53,10.5,10.92-.21,6.38-4.72,10.53-11.29,10.05-6.11-.45-10.43-3.26-10.67-9.97-.24-6.58,4.68-11.15,11.46-11.01Z"/>
      <path class="cls-1" d="M706.67,536.01c-2.18,.71-4.55,.78-6.75,.16-5.34-1.52-8.68-6.27-8.24-12.15,.49-6.56,5.04-9.44,10.94-9.89,6.25-.48,11.25,5.62,10.78,12.62-.35,5.21-2.98,8.04-6.73,9.26Z"/>
      <path class="cls-1" d="M109.01,595.87c6.57-.08,11.42,4.54,11.54,11,.11,5.97-5.32,11.5-11.27,11.49-5.9-.01-11.14-5.58-11.03-11.71,.11-6.25,4.55-10.7,10.76-10.78Z"/>
      <path class="cls-1" d="M709.42,236.06c-7.59,.14-9.97-4.23-9.96-10.39,.01-6.53,5.28-11.31,11.53-10.91,6.42,.41,10.67,5.38,10.34,12.08-.32,6.56-4.41,9.59-11.91,9.22Z"/>
      <path class="cls-1" d="M423.24,744.61c.03,4.4-2.62,8.77-6.64,10.6-4.47,2.03-10.26,.68-13.3-3.18-2.39-3.02-2.88-7.36-1.45-10.91,1.63-4.05,5.25-5.65,9.41-5.96,2.87-.22,5.94,.02,8.28,1.7,2.01,1.44,3.23,3.82,3.59,6.27,.07,.49,.11,.99,.11,1.48Z"/>
      <path class="cls-1" d="M529.67,44.07c0,.49-.04,.99-.11,1.48-.59,3.98-3.53,7.52-7.33,8.83s-8.3,.33-11.22-2.45c-4.59-4.38-5.01-14.13,1.25-17.32,2.35-1.2,5.12-1.37,7.72-.96,2.28,.36,4.55,1.18,6.3,2.69,2.2,1.9,3.4,4.82,3.39,7.73Z"/>
      <path class="cls-1" d="M382.99,743.67c.21,6.1-4.96,11.62-11.14,11.63-6.25,0-9.23-4.18-9.98-9.55-.97-6.92,4.17-12.93,10.17-12.9,5.99,.03,10.74,4.73,10.95,10.82Z"/>
      <path class="cls-1" d="M704.51,171.26c6.25,.18,10.64,4.7,10.62,10.94-.03,6.59-4.88,11.72-11.03,11.67-6-.05-11.15-5.5-11.08-11.71,.08-6.62,4.8-11.1,11.49-10.9Z"/>
      <path class="cls-1" d="M270.27,35.95c-.08,6.33-5.41,11.8-11.17,11.74-6.6-.07-10.98-4.67-10.84-11.37,.15-6.89,4.88-11.38,12.12-10.82,6.34,.49,9.43,4.56,9.89,10.45Z"/>
      <path class="cls-1" d="M24.64,373.13c-1.24-.15-2.44-.48-3.49-1.15-2.02-1.29-3.14-3.65-3.58-6.01-.68-3.69,.02-8.66,2.92-11.28s7.21-3.61,10.94-2.59c4.05,1.11,7.36,4.68,8.03,8.83,.66,4.15-1.44,8.64-5.13,10.66-2.05,1.12-4.44,1.49-6.77,1.6-.96,.05-1.95,.05-2.91-.07Z"/>
      <path class="cls-1" d="M330.46,23.66c-2.08,.14-4.18-.12-5.92-1.21-3.75-2.36-4.91-8.31-3.49-12.3,1.6-4.46,6.25-7.7,11.02-7.39,5.14,.33,9.7,4.78,10.15,9.91,.22,2.46-.45,5.04-2.05,6.93-1.93,2.29-4.95,3.37-7.9,3.85-.6,.1-1.21,.17-1.82,.21Z"/>
      <path class="cls-1" d="M758.37,419.41c.18,6.27-4.09,11.03-10.24,11.41-6.54,.4-11.65-4.23-11.78-10.69-.13-6.36,4.05-10.97,10.28-11.33,6.77-.39,11.54,3.93,11.74,10.61Z"/>
      <path class="cls-1" d="M669.17,170.5c-3.89,.08-8.41-1.67-10.03-5.47-1.77-4.15,.41-10.23,4.15-12.58,2.15-1.35,4.73-1.87,7.26-1.93,2.71-.06,5.6,.46,7.57,2.32,1.65,1.55,2.43,3.83,2.81,6.06,.39,2.31,.4,4.8-.73,6.85-1,1.82-2.82,3.1-4.77,3.81-1.95,.7-4.08,.89-6.14,.94-.04,0-.08,0-.11,0Z"/>
      <path class="cls-1" d="M752.5,334.5c.22,1.09,.25,2.21,.17,3.31-.53,6.91-4.31,10.19-11.29,9.64-5.86-.47-10.12-3.94-10.6-10.17-.48-6.26,3.97-9.74,10.94-10.01,6.43-.25,9.82,2.42,10.78,7.23Z"/>
      <path class="cls-1" d="M651.63,133.81c.64,1.87,.76,3.98,.46,5.95-.42,2.81-1.67,5.6-3.92,7.32-3.29,2.52-8.21,2.17-11.64-.14-3.52-2.37-5.57-6.67-5.45-10.88,.14-4.83,4.03-7.15,8.43-7.88,3.36-.56,7.11-.3,9.68,1.92,1.15,.99,1.94,2.28,2.43,3.71Z"/>
      <path class="cls-1" d="M724.68,256.73c.07-5.97,5.1-10.96,10.81-10.7,5.69,.26,11.83,6.11,11.44,11.35-.45,6.02-3.36,10.33-9.91,10.7-5.8,.33-12.4-5.97-12.34-11.35Z"/>
      <path class="cls-1" d="M343.58,737.06c.05,.62,.05,1.23,.03,1.85-.13,2.85-1.06,5.82-3.23,7.68-1.92,1.65-4.56,2.21-7.09,2.24-2.52,.02-5.17-.5-7.04-2.18-2.25-2.03-2.89-5.36-2.56-8.37,.76-7.15,7.75-15.88,15.35-10.28,2.81,2.07,4.28,5.55,4.54,9.06Z"/>
      <path class="cls-1" d="M59.46,542.09c.9-6.27,6.84-10.44,13.02-9.04,4.9,1.11,9.41,5.05,8.96,10.46-.58,6.98-9.94,11.09-16.01,8.67-4.84-1.93-6.53-6.1-5.96-10.09Z"/>
      <path class="cls-1" d="M705.61,562.69c7.02,.21,12.31,5.73,10.11,12.83-1.68,5.43-7.42,10.34-13.26,7.76-9.4-4.14-9.65-20.13,2.09-20.59,.35-.01,.71-.02,1.06,0Z"/>
      <path class="cls-1" d="M56.22,203.14c1.65,.04,3.3,.43,4.84,1.06,3.76,1.54,7.1,5.05,6.91,9.11-.15,3.33-2.6,6.14-5.37,7.98-3.72,2.48-8.88,3.63-12.58,1.11-2.28-1.55-3.59-4.29-3.82-7.04-.43-5.24,2.13-10.92,7.65-12.02,.78-.16,1.57-.22,2.36-.2Z"/>
      <path class="cls-1" d="M445.14,10.81c1.12-.07,2.27-.01,3.4,.18,2.45,.41,4.85,1.61,6.28,3.65,1.4,1.98,1.75,4.59,1.21,6.95-.54,2.36-1.91,4.48-3.64,6.17-2.13,2.09-4.94,3.62-7.93,3.65-4.84,.06-9.15-4.15-9.88-8.94-1.08-7.08,4.39-11.28,10.55-11.66Z"/>
      <path class="cls-1" d="M593.21,84.63c-5.83-.17-10.28-5.27-10.11-11.6,.15-5.52,6.29-10.53,12.82-9.91,6.23,.59,7.52,5.9,8.09,10.66,.7,5.8-5,11.03-10.8,10.86Z"/>
      <path class="cls-1" d="M25.17,467.38c.72,.11,1.44,.28,2.14,.52,3.8,1.3,5.45,5.19,5.72,8.94,.4,5.68-5.25,10.98-11.73,10.64-5.61-.29-9.76-2.71-9.85-9.29-.05-3.46,1.16-6.76,4.16-8.69,2.81-1.81,6.27-2.62,9.57-2.12Z"/>
      <path class="cls-1" d="M161.12,660.73c4.06,3.66,5.14,9.78,2.55,14.6-1.19,2.22-3.28,3.78-7.2,3.8-5.39,.03-11.73-5.35-11.92-10.2-.19-5.07,6.03-10.95,11.3-10.68,1.79,.09,3.67,1.04,5.27,2.48Z"/>
      <path class="cls-1" d="M89.17,234.9c-.1-6.66,3.68-10.09,9.82-10.77,5.23-.58,10.92,5.02,10.55,10.23-.41,5.86-3.8,9.59-9.67,10.34-5.57,.71-10.53-4.07-10.7-9.8Z"/>
      <path class="cls-1" d="M216.36,102.29c1.16,2.77,1.09,5.97-.19,8.69-1.54,3.28-4.33,5.25-8.75,5.37-5.49,.15-10.66-5.11-10.02-10.48,.7-5.9,4.53-9.25,10.43-9.12,4.41,.1,7.14,2.19,8.54,5.54Z"/>
      <path class="cls-1" d="M91.97,265.01c-.55,5.17-3.81,8.87-9.83,8.99-6.1,.12-9.52-3.51-9.92-9.59-.38-5.76,4.42-10.57,10.1-10.4,5.31,.16,9.63,4.71,9.65,11Z"/>
      <path class="cls-1" d="M371.31,77.36c-6.54-.46-9.9-3.74-9.8-9.93,.1-6.19,3.75-9.83,9.73-9.63,5.88,.19,9.65,4.37,9.72,10.04,.07,5.94-3.93,9.18-9.65,9.52Z"/>
      <path class="cls-1" d="M272.8,62.09c4.66,.27,7.99,3.79,7.85,9.77-.14,6.39-4.25,8.68-10.37,8.4-5.91-.26-9.41-3.25-9.11-8.96,.3-5.78,3.77-9.38,11.63-9.22Z"/>
      <path class="cls-1" d="M252.94,98.75c-.14,7.03-3.37,10.75-9.45,10.64-5.95-.11-9.76-4.06-9.61-9.89,.15-5.83,3.89-9.36,10.14-9.13,5.84,.22,8.87,3.34,8.91,8.38Z"/>
      <path class="cls-1" d="M301.91,69.62c-5.57-.15-9.67-2.7-10.07-8.47-.41-5.83,3.18-9.06,9.01-9.27,5.36-.19,10.12,1.19,10.42,7.61,.28,6.12-3.06,9.6-9.36,10.12Z"/>
      <path class="cls-1" d="M144.41,188.81c-2.78,1.25-5.98,1.15-8.84,.1-3.87-1.42-6.42-3.67-5.57-8.58,1.01-5.84,4.86-9.02,11.01-8.52,6.2,.5,8.55,5.17,8.2,10.22-.25,3.59-2.24,5.63-4.79,6.78Z"/>
      <path class="cls-1" d="M116.12,201.6c3.02-2.53,7.45-2.74,10.79-.63,2.44,1.54,3.96,3.95,4.17,7.56,.3,5.13-5.31,10.9-10.59,10.02-4.24-.71-7.93-3.49-7.84-8.75,.06-3.63,1.26-6.34,3.47-8.2Z"/>
      <path class="cls-1" d="M156.57,84.57c4.59-.37,7.77,2.32,7.93,7.46,.17,5.41-3.06,8.9-8.53,8.87-5.03-.02-7.86-2.88-7.86-8.35,0-5.38,2.07-8.26,8.46-7.99Z"/>
      <path class="cls-1" d="M41.56,502.45c6.18,.16,11.23,5.62,10.98,11.89-.23,5.91-5.26,10.75-11.22,10.79-6.21,.05-11.51-5.26-11.42-11.45,.08-6.19,5.48-11.39,11.66-11.23Z"/>
      <path class="cls-1" d="M620.81,90c5.83-.04,10.85,4.85,10.99,10.72,.17,6.96-4.77,12.05-11.52,11.87-5.92-.16-10.61-5-10.73-11.07-.12-6.21,5.03-11.48,11.25-11.52Z"/>
      <path class="cls-1" d="M639.79,607.96c6.41-.08,11.45,4.74,11.57,11.06,.12,6.38-4.07,10.88-10.34,11.14-6.73,.27-12.17-4.8-12.21-11.39-.04-5.81,4.96-10.73,10.98-10.81Z"/>
      <path class="cls-1" d="M436.67,724.23c.44-6.86,5.12-11.29,11.4-10.8,5.53,.43,10.39,5.96,10.24,11.67-.15,5.95-6.05,11.22-12.43,11.09-5.52-.11-9.64-5.45-9.22-11.96Z"/>
      <path class="cls-1" d="M39.4,242.48c-.23,3.38-1.78,6.67-4.44,8.76-3.85,3.03-9.84,3.12-13.59-.04-8.29-6.99-.25-19.15,8.9-19.46,1.79-.06,3.64,.28,5.14,1.26,1.73,1.13,2.87,3,3.48,4.98,.45,1.45,.61,2.98,.51,4.5Z"/>
      <path class="cls-1" d="M184.3,57.16c3.3-.16,6.79,.96,9.12,3.07,1.92,1.74,2.86,4.44,2.71,7.03-.15,2.59-1.32,5.06-3.02,7.03-1.1,1.27-2.47,2.38-4.08,2.86-1.52,.45-3.17,.32-4.71-.09-3.14-.83-6-2.83-7.63-5.64-3.68-6.36,.29-13.9,7.61-14.26Z"/>
      <path class="cls-1" d="M165.54,149.95c0,3.95-2.46,7.93-6.18,9.38-4.58,1.79-10.35-.52-12.43-4.98-2.17-4.66,.63-10.36,5.58-11.62,5.22-1.33,13.01,.83,13.02,7.22Z"/>
      <path class="cls-1" d="M621.85,664.99c-6.4,.18-11.42-4.65-11.3-11.09,.13-6.8,3.89-10.43,10.53-10.91,5.91-.42,11.07,4.34,11.43,10.17,.39,6.34-4.39,11.65-10.67,11.82Z"/>
      <path class="cls-1" d="M25.2,335.61c-5.81-.2-10.66-5.5-10.45-11.41,.22-5.88,5.36-10.73,11.26-10.63,5.9,.1,10.82,5.42,10.44,11.28-.39,6-5.57,10.95-11.25,10.76Z"/>
      <path class="cls-1" d="M126.39,633.01c6.68,.12,11.13,4.31,11.09,10.43-.05,6.67-4.69,11.33-11.25,11.3-6.83-.03-11.25-4.61-10.95-11.33,.28-6.37,4.71-10.51,11.12-10.39Z"/>
      <path class="cls-1" d="M345.23,56.86c.1,.24,.19,.48,.27,.73,1.26,3.88-.25,8.49-3.55,10.88-3.3,2.39-8.15,2.39-11.44-.01-7.42-5.4-3.44-17.61,5.74-17.6,3.82,0,7.49,2.5,8.98,6Z"/>
      <path class="cls-1" d="M183.71,682.71c6.36,.07,11.04,5.07,10.79,11.68-.25,6.8-4.07,10.46-10.67,10.88-6.22,.4-11.36-4.85-11.43-11.17-.07-6.19,5.16-11.46,11.31-11.39Z"/>
      <path class="cls-1" d="M736.69,369.84c3.78-1.67,7.53-.1,8.32,.23,.82,.34,5.18,2.17,6.39,6.8,.87,3.33-.42,6.09-.82,6.86-1.85,3.61-5.78,5.65-9.59,5.69-3.57,.03-7.83-1.69-9.69-5.52-2.54-5.22,.54-11.91,5.39-14.05Z"/>
      <path class="cls-1" d="M546.67,56.26c0-6.38,5.18-12.34,10.5-12.1,5.46,.25,10.68,5.93,10.5,11.43-.2,5.87-5.77,10.96-11.97,10.91-5.3-.04-9.04-4.28-9.03-10.25Z"/>
      <path class="cls-1" d="M173.14,130.86c.23-6.49,3.28-9.9,9.63-9.72,6.05,.17,9.87,3.29,9.8,9.48-.07,6-3.72,9.79-9.72,9.69-5.82-.1-9.5-3.46-9.71-9.45Z"/>
      <path class="cls-1" d="M133.76,133.85c-6.3,.01-11.27-4.88-11.43-11.24-.16-6.76,4.89-12.11,11.46-12.12,5.9-.01,11.52,5.39,11.77,11.3,.25,6.15-5.51,12.04-11.8,12.05Z"/>
      <path class="cls-1" d="M294.94,25.62c-6.07-.02-10.98-4.68-11.17-10.59-.19-6.23,4.91-11.38,11.26-11.38,6.41,0,11.2,5.01,10.96,11.47-.23,6.17-4.81,10.53-11.05,10.5Z"/>
      <path class="cls-1" d="M601.89,677.02c-.11,6.2-5.27,11.27-11.52,11.3-5.87,.03-11.33-5.6-11.25-11.62,.08-5.95,5.62-11.28,11.66-11.21,6.32,.07,11.21,5.15,11.1,11.53Z"/>
      <path class="cls-1" d="M231.12,713.72c.02,6.13-4.53,10.83-10.66,11.02-6.31,.19-11.33-4.78-11.34-11.24-.02-6.58,4.87-11.65,11.1-11.52,6.11,.13,10.87,5.26,10.89,11.74Z"/>
      <path class="cls-1" d="M729.82,490.15c.17,6.52-2.98,10.4-9.42,11.04-6,.59-11.27-4.26-11.56-10.12-.33-6.61,4.4-11.79,10.96-11.42,6.37,.36,9.86,3.96,10.02,10.49Z"/>
      <path class="cls-1" d="M408.28,22.24c-6.17,0-11.21-5.13-11.22-11.41,0-6.31,4.33-10.74,10.6-10.83,6.75-.1,11.22,4.37,11.1,11.1-.11,6.19-4.78,11.15-10.48,11.14Z"/>
      <path class="cls-1" d="M71.34,289.79c1.19,2.78,1.12,6.02-.26,8.71-1.67,3.28-4.71,4.97-9,4.87-6.09-.14-9.45-3.78-9.22-9.91,.23-6.14,4.01-9.51,9.95-9.31,4.36,.14,7.11,2.31,8.53,5.65Z"/>
      <path class="cls-1" d="M667.59,216.97c-2.63,1.35-5.76,1.43-8.53,.4-3.46-1.29-5.72-3.9-6.15-8.43-.54-5.78,3.87-10.51,9.75-10.44,6.15,.07,9.66,3.51,9.78,9.49,.09,4.27-1.62,7.31-4.86,8.97Z"/>
      <g>
        <path class="cls-1" d="M76.36,361.24c1.24,2.81,1.19,6.08-.11,8.86-1.56,3.35-4.46,5.3-8.91,5.09-5.98-.28-9.5-3.88-9.28-10.13,.21-5.95,4.05-8.99,9.52-9.07,4.38-.07,7.29,1.88,8.78,5.25Z"/>
        <path class="cls-1" d="M713.66,445.66c-.65,5.91-3.45,9.48-9.89,9.37-6.02-.1-8.93-3.56-9.42-9.04-.49-5.49,4.72-10.71,9.98-10.58,5.11,.13,9.41,4.84,9.33,10.25Z"/>
        <path class="cls-1" d="M310.15,705.02c-2.71,1.34-5.93,1.42-8.71,.25-3.34-1.4-5.44-4.14-5.86-8.5-.55-5.68,4.04-10.18,10.1-10.12,6.26,.06,9.72,3.6,9.71,9.55-.01,4.25-1.94,7.2-5.23,8.83Z"/>
        <path class="cls-1" d="M218.38,651.48c.83,2.2,.93,4.66,.17,6.88-1.23,3.58-4.09,5.56-8.63,5.76-5.79,.25-9.54-2.21-9.68-8.39-.13-5.89,2.11-10.37,8.74-10.4,4.82-.03,7.92,2.21,9.4,6.15Z"/>
        <path class="cls-1" d="M466.39,668.72c2.8-1.22,6.06-1.18,8.81,.15,3.34,1.61,5.22,4.59,5.08,8.9-.19,5.97-3.95,9.56-10.11,9.26-5.7-.28-8.93-3.79-9-9.53-.06-4.56,1.9-7.34,5.22-8.79Z"/>
        <path class="cls-1" d="M702.25,379.37c-.06,.99-.27,1.95-.7,2.85-.91,1.89-2.71,3.24-4.66,4.02-3.79,1.5-8.44,.91-11.46-1.82-4.58-4.14-3.95-13.21,2.24-15.47,1.97-.72,4.14-.72,6.23-.44,1.87,.26,3.77,.77,5.22,1.97,1.83,1.52,2.69,3.93,3.01,6.28,.12,.86,.17,1.75,.12,2.61Z"/>
        <path class="cls-1" d="M602.35,125.96c.77,2.24,.69,4.7-.05,6.95-1.35,4.14-4.45,6.18-9.37,6.18-5.8,0-10.68-4.87-9.83-10.39,.88-5.67,4.35-9.52,10.45-9.04,4.55,.36,7.55,2.64,8.8,6.29Z"/>
        <path class="cls-1" d="M673.27,475.68c-.49-1.73-.52-3.57-.14-5.33,.96-4.49,3.89-6.87,8.75-7,5.58-.15,9.7,2.46,9.71,8.43,0,5.63-2.68,10.2-9,10.37-5.07,.14-8.14-2.38-9.32-6.47Z"/>
        <path class="cls-1" d="M711.77,337.98c1.33,2.73,1.42,5.95,.28,8.77-1.37,3.41-4.06,5.55-8.66,5.66-6.23,.15-9.8-3.21-9.99-9.38-.19-6.19,3.43-9.86,9.41-10.11,4.4-.18,7.33,1.74,8.95,5.07Z"/>
        <path class="cls-1" d="M533.67,78.17c2.71-1.32,5.91-1.44,8.72-.34,3.39,1.32,5.46,4.05,5.88,8.42,.54,5.65-4.21,10.75-9.81,10.44-5.92-.33-9.65-3.58-9.78-9.66-.1-4.4,1.75-7.28,4.99-8.86Z"/>
        <path class="cls-1" d="M70.63,477.67c-2.4,.68-4.99,.52-7.29-.43-3.72-1.54-5.8-4.54-5.52-9.44,.37-6.31,4.38-9.5,10.27-9.15,5.92,.34,9.56,4.12,9.19,10.31-.29,4.8-2.72,7.61-6.66,8.72Z"/>
        <path class="cls-1" d="M72.96,322.87c2.82-1.17,6.08-1.06,8.83,.27,3.32,1.61,5.21,4.48,5.02,9.01-.25,6.2-4.13,9.64-10.08,9.46-6-.19-9.65-4.08-9.44-10.14,.15-4.39,2.26-7.18,5.67-8.59Z"/>
        <path class="cls-1" d="M92.04,500.66c-.32,5.99-3.82,9.34-9.82,9.25-6.01-.1-9.42-3.88-9.89-9.77-.41-5.27,5.18-10.66,10.52-10.06,5.9,.67,9.19,4.16,9.19,10.58Z"/>
        <path class="cls-1" d="M635.63,555.61c2.64-1.13,5.67-1.11,8.32-.02,3.33,1.38,5.3,4.05,5.07,8.36-.28,5.32-2.9,9.5-9.07,9.54-6.34,.03-9.66-3.45-9.53-9.68,.09-4.27,2.06-6.86,5.21-8.2Z"/>
        <path class="cls-1" d="M155.07,577.51c-.18,6.8-4.82,10.11-10.43,10-5.49-.11-9.16-4.39-9.45-10.28-.27-5.4,5.04-10.12,10.63-9.87,5.44,.24,9.48,4.67,9.26,10.15Z"/>
        <path class="cls-1" d="M448.46,685.63c-1.36,4.03-4.59,6.21-9.36,6.11-5.11-.11-9.29-4.28-9.34-9.39-.06-5.97,3.47-9.74,9.66-9.75,4.87-.01,7.88,2.19,9.1,6.19,.68,2.23,.68,4.65-.06,6.85Z"/>
        <path class="cls-1" d="M685.77,321.36c-1.19,.14-2.41,.1-3.59-.13-4.52-.89-7.13-3.76-7.07-9.1,.08-6.22,3.56-10.01,9.53-9.93,5.81,.07,9.93,3.72,9.66,9.89-.23,5.36-3.24,8.65-8.53,9.28Z"/>
        <path class="cls-1" d="M515.26,75.1c.16,1.15,.14,2.33-.07,3.48-.94,5.03-4.41,7.2-9.52,6.93-5.65-.31-9.31-3.7-9.14-9.44,.18-6.19,4.17-9.24,10.31-8.92,5.43,.28,7.81,3.46,8.42,7.96Z"/>
        <path class="cls-1" d="M98.29,523.35c.62-5.91,3.9-9.28,10.04-9.05,6.15,.23,9.57,4.11,9.37,9.94-.2,5.89-4.19,9.55-10.1,9.36-5.96-.19-9.14-3.99-9.31-10.25Z"/>
        <path class="cls-1" d="M334.32,691.3c2.74-1.4,6.01-1.55,8.88-.43,3.51,1.37,5.55,4.24,5.74,8.63,.24,5.63-3.01,9.6-8.66,9.89-5.86,.3-9.93-3.54-10.58-9.09-.52-4.35,1.38-7.33,4.63-8.99Z"/>
        <path class="cls-1" d="M628.58,202.44c-2.21,.03-4.43-.65-6.18-2-8-6.18-1.66-18.11,7.72-16.9,2.48,.32,4.89,1.54,6.4,3.54,1.11,1.48,1.7,3.33,1.75,5.18,.1,3.71-2.06,7.4-5.35,9.11-1.33,.69-2.83,1.04-4.33,1.06Z"/>
        <path class="cls-1" d="M562.05,647.46c-1.71,.4-3.52,.43-5.21-.06-4.48-1.28-6.67-5.07-6.54-9.79,.15-5.55,3.66-9.82,9.85-9.66,6.17,.15,9.65,4.22,9.49,10.1-.14,4.99-2.84,8.29-7.6,9.41Z"/>
        <path class="cls-1" d="M588.59,623.73c-.88,0-1.76-.06-2.62-.17-1.81-.22-3.65-.64-5.11-1.73-1.88-1.4-2.87-3.77-2.98-6.11-.28-6.07,3.55-10.4,9.61-10.57,2.5-.07,5.12,.5,7.01,2.14,2.38,2.07,3.19,5.49,2.96,8.64-.11,1.54-.45,3.1-1.3,4.39-1.04,1.57-2.77,2.59-4.59,3.06-.97,.25-1.97,.35-2.98,.36Z"/>
        <path class="cls-1" d="M144.67,618.23c-.27-8.79,3.26-11.84,8.64-12.63,4.75-.7,11.23,5.21,10.78,9.77-.63,6.36-6.08,8.48-10.97,8.87-5.01,.4-8.33-3.26-8.45-6.01Z"/>
        <path class="cls-1" d="M370.08,696.5c.5,0,1,.02,1.49,.05,2.1,.16,4.25,.54,5.99,1.73,1.82,1.24,3.02,3.31,3.38,5.48,.72,4.25-1.88,8.8-5.88,10.41-4,1.61-8.98,.15-11.54-3.31-2.13-2.88-2.46-6.92-1.03-10.18,1.39-3.18,4.42-4.16,7.59-4.19Z"/>
        <path class="cls-1" d="M437.8,74.23c-6.43-.2-9.32-4.14-9.53-9.96-.25-6.92,4.93-8.89,10.34-8.51,5.21,.36,8.95,3.99,8.78,9.58-.17,5.75-3.81,8.71-9.59,8.89Z"/>
        <path class="cls-1" d="M184.83,641.25c-3.1,.55-6.37-.29-8.6-2.5-1.46-1.45-2.43-3.38-2.41-5.86,.05-6.02,3.8-9.7,10.3-9.44,6.02,.24,8.89,4.02,8.97,9.49,.08,5.58-3.43,7.45-8.27,8.31Z"/>
        <path class="cls-1" d="M703,405.32c.74,.03,1.49,.12,2.22,.26,2.16,.41,4.33,1.3,5.69,3.03,1.35,1.72,1.7,4.08,1.3,6.23-.64,3.5-3.26,6.6-6.64,7.71-3.38,1.11-7.39,.13-9.8-2.5-4-4.36-2.59-12.11,3.13-14.15,1.31-.47,2.71-.63,4.1-.58Z"/>
        <path class="cls-1" d="M671.55,518.91c-1.07,.14-2.17,.11-3.24-.04-4.44-.61-8.19-2.48-8.34-8.08-.15-5.88,3.61-9.11,9.17-9.12,5.73,0,8.98,3.78,9.07,9.37,.07,4.52-2.26,7.28-6.66,7.87Z"/>
        <path class="cls-1" d="M654.96,246.97c-.53-2.79-.29-5.91,1.58-8.18,2.25-2.73,5.74-3.23,9.04-2.51,1.92,.42,3.82,1.2,5.22,2.58,1.8,1.78,2.58,4.39,2.6,6.92,.01,2.29-.61,4.68-2.2,6.32-2.06,2.12-5.35,2.59-8.26,2.1-2.45-.41-4.88-1.49-6.39-3.47-.79-1.04-1.32-2.35-1.59-3.77Z"/>
        <path class="cls-1" d="M653.32,402.64c1.98-.85,4.22-.86,6.3-.27,3.95,1.12,6.01,3.94,5.92,8.28-.1,4.98-3.28,8.09-8.34,8.12-5.52,.03-8.68-3.44-8.61-8.71,.05-3.69,1.89-6.21,4.73-7.42Z"/>
        <path class="cls-1" d="M172.14,203.34c.47-.22,3.83-1.73,7.43-.06,2.26,1.05,3.44,2.8,3.89,3.56,.37,.81,.93,2.34,.83,4.28-.04,.81-.18,3.69-2.5,5.77-1.53,1.37-3.69,2.07-6.28,1.85-2.57-.22-4.63-1.2-5.98-2.8-1.95-2.31-1.83-5.05-1.79-5.99,.04-.84,.11-2.22,.98-3.68,1.08-1.81,2.69-2.6,3.42-2.94Z"/>
        <path class="cls-1" d="M569.69,115.33c.62,2.24,.48,4.68-.52,6.78-1.47,3.09-4.25,4.97-8.48,5.07-5.88,.14-8.42-4.12-8.28-8.96,.15-5.33,3.75-9.11,9.42-9.02,4.27,.07,6.81,2.32,7.86,6.11Z"/>
        <path class="cls-1" d="M297.19,118.53c1.15,2.51,1.07,5.47-.18,7.93-1.32,2.59-3.59,4.29-7.08,4.3-5.24,.01-8.8-3.16-8.81-8.55-.01-4.97,3.16-8.12,8.18-8.24,3.92-.09,6.52,1.58,7.89,4.56Z"/>
        <path class="cls-1" d="M655.49,300.55c1.11,2.51,1.02,5.46-.25,7.89-1.52,2.89-4.25,4.49-8.02,4.38-5.15-.15-7.74-4.04-7.72-8.76,.02-4.9,3.1-8.31,8.16-8.27,3.84,.03,6.49,1.73,7.83,4.76Z"/>
        <path class="cls-1" d="M471.45,111.5c-.81,5.53-3.69,9.21-8.91,9.26-5.58,.05-9.31-3.56-9.09-9.25,.2-5.18,3.68-8.63,9.02-8.51,5.31,.12,8.03,3.77,8.98,8.5Z"/>
        <path class="cls-1" d="M149.8,253.29c1.72,4.49-.71,10.28-4.79,11.53-4.89,1.5-11.41-3.74-10.88-9.34,.39-4.13,4.57-7.99,9.03-7.54,3.21,.32,5.67,2.79,6.65,5.35Z"/>
        <path class="cls-1" d="M491.86,128.28c-3.34,.14-6.11-.52-7.74-2.39-1.63-1.86-1.61-4.19-1.61-5.2,0-.85-.01-3.7,2.14-6.03,2.45-2.65,5.82-2.61,6.6-2.6,.87,0,3.84,.04,6.1,2.35,1.52,1.56,2.31,3.83,2.21,6.64-.18,4.65-2.83,7.41-7.69,7.23Z"/>
        <path class="cls-1" d="M109.05,314.55c-1.05,0-4.64,.02-7.05-2.75-1.24-1.43-1.87-3.39-1.84-5.86,.07-5.08,3.25-8.01,8.38-8.03,2.6,0,4.62,.72,6.05,2.03,2.65,2.42,2.62,5.82,2.61,6.69-.01,1.03-.05,3.73-2.09,5.79-2.08,2.09-4.83,2.12-6.05,2.13Z"/>
        <path class="cls-1" d="M615.71,253.11c-1.42,.56-2.98,.62-4.49,.41-4.93-.69-7.4-3.6-7.52-8.2-.13-4.93,2.94-8.12,8.02-8.32,5.5-.23,8.81,2.92,8.88,8.26,.05,3.95-1.91,6.68-4.89,7.86Z"/>
        <path class="cls-1" d="M540.71,157.74c-1.88,.1-3.87-.07-5.38-1.18-1.27-.94-2.04-2.45-2.32-4.01-1.01-5.71,3.37-11.73,9.5-11,1.89,.22,3.73,1.14,4.9,2.64,1.31,1.69,1.67,3.95,1.52,6.09-.13,1.95-.71,3.96-2.1,5.33-1.53,1.5-3.79,1.98-5.94,2.12-.06,0-.12,0-.18,.01Z"/>
        <path class="cls-1" d="M516.64,126.4c1.07-.21,2.17-.23,3.24-.09,4.23,.58,6.79,3.08,6.97,7.69,.2,5.52-2.87,8.72-8.42,8.69-5.14-.03-8.05-2.97-8.08-8.17-.03-4.63,2.19-7.32,6.29-8.12Z"/>
        <path class="cls-1" d="M354.36,109.58c-.4,5.19-3.17,8.07-8.35,8.02-5.29-.05-8.01-3.31-7.95-8.34,.05-5.16,3.18-8,8.34-7.95,5.26,.06,7.84,3.06,7.96,8.26Z"/>
        <path class="cls-1" d="M262.25,142.65c-1.97-.02-4.07-.32-5.55-1.62-1.21-1.07-1.84-2.69-1.97-4.29-.28-3.41,.89-7.33,4.26-8.76,1.71-.73,3.64-.79,5.47-.51,1.62,.25,3.25,.79,4.47,1.89,1.38,1.25,2.09,3.11,2.25,4.96,.21,2.39-.51,4.96-2.33,6.51-1.77,1.51-4.25,1.85-6.59,1.82Z"/>
        <path class="cls-1" d="M639.49,268.69c-.02,.76-.13,1.53-.33,2.26-.48,1.72-1.48,3.35-2.99,4.29-1.44,.89-3.21,1.09-4.91,1.04-2.58-.08-5.37-.84-6.87-2.94-3.43-4.78,.01-13.07,5.87-13.71,2.81-.3,5.71,1.02,7.43,3.27,1.25,1.64,1.87,3.72,1.81,5.79Z"/>
        <path class="cls-1" d="M566.79,172.15c1.49,2.16,1.66,4.97,.74,7.43-1.21,3.21-2.5,6.57-7.29,6.54-4.97-.02-8.08-2.79-8.3-7.96-.24-5.8,4.17-8.14,8.57-8.72,2.71-.35,4.87,.66,6.28,2.7Z"/>
        <path class="cls-1" d="M320.68,98.51c.68,1,1.14,2.15,1.31,3.34,.38,2.69-.75,5.55-2.89,7.21-1.26,.98-2.81,1.53-4.37,1.85-1.3,.26-2.68,.36-3.94-.03-2.08-.65-3.56-2.59-4.21-4.67-1.21-3.88-.85-7.95,2.89-10.14,2.34-1.37,5.35-1.56,7.82-.44,1.37,.62,2.55,1.64,3.39,2.88Z"/>
        <path class="cls-1" d="M193.43,179.95c.13,1.64-.32,3.33-1.32,4.65-1.33,1.75-3.46,2.76-5.62,3.13-1.96,.34-4.11,.17-5.75-.96-6.01-4.12,.32-12.98,6.05-12.95,2.48,.01,4.89,1.52,5.99,3.75,.37,.74,.58,1.56,.65,2.38Z"/>
        <path class="cls-1" d="M402.56,108.36c4.09,.5,8.43,1.38,8.07,6.79-.3,4.62-3.68,7.19-8.21,7.17-4.49-.02-7.93-2.12-7.94-7.22-.01-5.17,3.12-7.08,8.08-6.73Z"/>
        <path class="cls-1" d="M655.45,388.36c-1.08,.15-2.28,0-3.58-.51-1.91-.76-3.58-2.15-4.51-3.98-1.8-3.56-.2-8.12,3.54-9.59,1.66-.65,3.53-.68,5.27-.3,1.63,.36,3.27,1.16,4.14,2.6,.89,1.48,.81,3.33,.6,5.05-.42,3.52-2.44,6.31-5.46,6.74Z"/>
        <path class="cls-1" d="M588.11,197.53c-6.82,.86-8.37-2.89-8.46-6.24-.12-4.51,3.42-7.73,7.62-7.87,4.32-.15,7.83,3.11,8.09,7.54,.34,6.09-5.2,5.72-7.25,6.56Z"/>
        <path class="cls-1" d="M54.93,390.63c6.74-.11,9.97,3.89,10.57,9.95,.52,5.32-5.06,10.65-10.43,10.3-5.98-.39-9.45-4.03-10.15-9.8-.68-5.57,4.2-10.36,10.01-10.46Z"/>
        <path class="cls-1" d="M620.02,602.9c-3.12,1.57-6.87,1.16-9.85-.67-3.12-1.92-4.67-4.96-4.18-9.11,.69-5.79,4.72-9.31,10.73-8.73,6.08,.58,9.3,5.05,8.55,10.69-.48,3.6-2.36,6.36-5.26,7.83Z"/>
        <path class="cls-1" d="M275.98,693.13c-2.09,.84-4.43,.88-6.59,.27-4.47-1.26-6.7-4.55-6.3-8.89,.46-5.05,3.25-10.3,9.62-10.06,5.58,.21,9.01,4.07,8.99,9.62-.02,4.63-2.23,7.67-5.71,9.06Z"/>
        <path class="cls-1" d="M240.54,140.86c2.9,1.41,4.61,4,4.59,7.79-.03,4.37-3.53,7.82-7.91,7.92-5.69,.13-9.2-3.08-9.12-8.65,.05-3.56,1.76-5.82,4.49-7.08,2.51-1.16,5.47-1.19,7.96,.02Z"/>
        <path class="cls-1" d="M639.46,350.03c.52-3.37,3.18-6.46,6.72-7.41,2.79-.75,6.01,.03,7.95,2.19,1.52,1.69,2.15,4.09,2.13,6.32-.04,7.96-10.07,10.86-15.09,4.92-1.55-1.83-2.02-3.97-1.71-6.02Z"/>
        <path class="cls-1" d="M382.49,101.91c1.02,2.51,.84,5.42-.47,7.79-1.38,2.51-3.73,3.97-7.35,3.82-5.14-.22-7.96-3.24-7.79-8.32,.14-4.35,3.73-7.93,8.08-7.92,3.95,0,6.36,1.72,7.54,4.63Z"/>
        <path class="cls-1" d="M80.04,429.13c.82,2.32,.82,4.88,.06,7.22-1.23,3.82-4.04,6.15-8.89,6.39-5.67,.28-10.37-4.45-10.15-10.25,.23-6.24,4.13-9.49,9.93-9.44,4.57,.04,7.68,2.22,9.04,6.08Z"/>
        <path class="cls-1" d="M222.69,169.23c-.4,4.71-2.71,7.7-7.68,7.95-4.55,.23-8.33-3.57-8.15-8.24,.19-5.01,3.32-7.62,7.97-7.58,4.72,.04,7.5,2.93,7.86,7.87Z"/>
        <path class="cls-1" d="M233.7,668.08c2.21-.86,4.69-.92,6.93-.18,4.48,1.48,7.28,5.48,7.01,10.15-.36,6.12-3.78,9.36-9.88,9.55-5.8,.18-10.62-4.47-10.3-10.11,.28-4.99,2.67-8.03,6.23-9.41Z"/>
        <path class="cls-1" d="M502.74,658.69c2.15-.59,4.47-.49,6.55,.33,3.35,1.32,5.68,4.18,5.73,9.03,.07,6.17-3.42,9.63-9.48,10.08-5.74,.43-10.55-4.45-10.42-10.17,.09-4.34,3.08-8.03,7.62-9.27Z"/>
        <path class="cls-1" d="M481.66,62.89c1.66,3.11,1.41,6.89-.3,9.97-1.75,3.15-4.67,4.83-8.86,4.42-5.7-.56-9.6-4.21-9.09-10.36,.49-5.91,4.47-9.77,10.27-9.16,3.62,.38,6.43,2.23,7.98,5.14Z"/>
        <path class="cls-1" d="M412.64,713.67c-2.06,.86-4.37,1.05-6.54,.52-4.67-1.13-6.9-4.84-6.94-9.43-.05-5.35,2.55-10.12,9.28-10.05,6.31,.06,9.9,3.8,9.99,9.59,.07,4.48-2.06,7.81-5.79,9.37Z"/>
        <path class="cls-1" d="M608,223.99c-1.96,.8-4.16,.91-6.22,.42-3.74-.88-5.81-3.34-6.07-7.34-.33-5.05,2.55-8.29,7.62-8.63,5.52-.37,8.69,2.9,9.09,8.18,.31,4.04-1.67,6.25-4.43,7.37Z"/>
        <path class="cls-1" d="M408.83,82.62c-2.3,.76-4.82,.67-7.1-.14-4.1-1.47-6.3-4.65-6.17-9.36,.16-6.05,4.33-9.61,10.13-9.48,5.87,.14,9.54,3.89,9.33,10.1-.17,4.82-2.5,7.66-6.19,8.88Z"/>
        <path class="cls-1" d="M609.56,152.07c1.75-.52,3.63-.52,5.41-.14,4.69,1.01,7.69,3.84,7.75,9.13,.08,6.17-3.82,9.68-9.82,9.73-5.61,.05-9.34-3.12-9.52-9.03-.16-5.08,1.93-8.44,6.17-9.7Z"/>
        <path class="cls-1" d="M671.02,542.65c-.38,3.48-2.91,6.71-6.28,7.71-3.59,1.07-7.73-.46-9.99-3.45-2.07-2.74-3.03-7.77-1.04-10.83,2.05-3.16,7.06-4.3,10.47-3.32,3.78,1.09,6.72,4.71,6.88,8.65,.02,.42,0,.83-.04,1.24Z"/>
        <path class="cls-1" d="M115.21,283.61c-4.53-.44-7.48-3.38-7.41-8.41,.07-5.2,3.56-7.94,8.52-7.93,5.56,0,8.66,3.51,8.44,8.86-.22,5.17-3.86,7.46-9.55,7.49Z"/>
        <path class="cls-1" d="M123.31,560.67c-6.06-.5-9.44-3.78-9.59-9.86-.14-5.7,4.98-10.54,10.5-9.88,5.99,.72,9.09,4.61,9.26,10.44,.16,5.3-4.68,9.46-10.18,9.31Z"/>
        <path class="cls-1" d="M543.96,674.65c-2.67,1.56-5.93,1.58-8.84,.53-3.99-1.45-6.42-4.19-6.17-9.1,.3-5.84,3.5-10.11,9.73-9.84,5.82,.25,9.82,3.87,9.74,10-.06,4-1.71,6.81-4.46,8.41Z"/>
        <path class="cls-1" d="M699.91,271.34c.26,1.64,.15,3.34-.36,4.92-1.21,3.72-4.21,6.29-9.32,6.48-6.13,.22-10.92-5.31-9.74-11.57,.91-4.84,5.36-8.36,10.29-8.23s8.35,3.41,9.14,8.4Z"/>
        <path class="cls-1" d="M158,223.32c1.66,2.56,1.76,5.83,.56,8.64s-3.44,4.48-7.05,4.44c-5.24-.06-7.78-4.41-7.95-8.55-.18-4.28,2.19-8.52,7.83-8.14,3.17,.21,5.28,1.58,6.6,3.61Z"/>
        <path class="cls-1" d="M435.61,116.91c-2.07,.69-4.36,.64-6.28-.4-2.33-1.27-3.41-3.44-3.44-6.51-.05-4.98,2.8-7.84,7.41-7.86,4.85-.02,8.47,2.98,8.49,8.02,.02,4.44-3.15,5.74-6.19,6.76Z"/>
      </g>
      <g>
        <path class="cls-1" d="M172.75,368.33c2.92,1.04,4.37,3.25,4.07,6.81s-3.22,6.32-6.81,6.24c-4.46-.1-6.87-2.91-6.65-7.39,.15-3.08,1.69-4.8,3.86-5.64,1.77-.68,3.75-.65,5.53-.01Z"/>
        <path class="cls-1" d="M187.53,319.08c2.92,1.04,4.37,3.25,4.07,6.81-.3,3.58-3.22,6.32-6.81,6.24-4.46-.1-6.87-2.91-6.65-7.39,.15-3.08,1.69-4.8,3.86-5.64,1.77-.68,3.75-.65,5.53-.01Z"/>
        <path class="cls-1" d="M179.33,448.16c2.92,1.04,4.37,3.25,4.07,6.81s-3.22,6.32-6.81,6.24c-4.46-.1-6.87-2.91-6.65-7.39,.15-3.08,1.69-4.8,3.86-5.64,1.77-.68,3.75-.65,5.53-.01Z"/>
        <path class="cls-1" d="M332.41,607.11c.12,.95,.09,1.93-.14,2.87-.76,3.13-3.06,5.06-7.03,4.92-4.58-.16-6.93-3.02-6.76-7.38,.16-4.06,2.84-6.55,6.86-6.49,3.84,.06,6.53,1.89,7.06,6.09Z"/>
        <path class="cls-1" d="M192.11,508.97c-.57,3.81-2.49,6.59-6.79,6.51-4.58-.08-7.08-2.7-6.81-7.31,.25-4.25,3.15-6.48,7.09-6.33,4.01,.15,6.34,2.77,6.51,7.13Z"/>
        <path class="cls-1" d="M380.18,615.55c.36,1.43,.35,2.94-.05,4.36-.8,2.87-2.74,4.54-6.2,4.54-4.66,0-6.83-2.8-6.79-7.18,.04-4.12,2.6-6.62,6.56-6.69,3.71-.07,5.72,1.95,6.48,4.97Z"/>
        <path class="cls-1" d="M234.32,571.4c-1.18-.04-2.35-.36-3.36-.97-2.06-1.23-3.4-3.54-3.51-5.93-.05-1.2,.2-2.43,.85-3.44,1.67-2.57,5.66-3.5,8.51-3.15,2.81,.34,4.46,2.19,4.76,4.96,.32,3.02-1.09,6.26-3.76,7.72-1.06,.58-2.29,.85-3.5,.81Z"/>
        <path class="cls-1" d="M258.43,568.27c.22,.01,.85,.07,1.63,.35,2.18,.79,3.77,2.85,4.32,5.11,.11,.46,.57,2.98-.98,4.84-.75,.91-1.68,1.29-2.57,1.65-.45,.18-2.01,.78-4.11,.62-1.02-.08-1.92-.15-2.88-.72-1.86-1.11-2.37-3.18-2.48-3.72-.55-2.68,.97-4.77,1.29-5.21,1.24-1.69,3.41-3.08,5.78-2.93Z"/>
        <path class="cls-1" d="M306.64,585.81c.22,.05,.43,.1,.64,.17,1.69,.56,3.17,1.79,3.93,3.4,.76,1.61,.74,3.59-.13,5.14-.77,1.36-2.15,2.34-3.67,2.73s-3.15,.23-4.61-.34c-1.73-.67-3.29-1.94-3.99-3.66-1.95-4.79,3.6-8.32,7.84-7.44Z"/>
        <path class="cls-1" d="M351.85,603.54c2.1,.45,3.96,2,4.65,4.04,.76,2.23-.02,4.93-1.93,6.32-1.79,1.31-4.28,1.36-6.37,.6-6.6-2.42-3.56-11.77,3.03-11.06,.21,.02,.42,.06,.62,.1Z"/>
        <path class="cls-1" d="M474.36,218.39c1.13,2.11,.96,4.74-.37,6.73-1.15,1.72-2.89,2.68-5.38,2.41-3.22-.35-5.61-2.63-5.53-5.99,.08-3.72,2.68-6.1,6.3-6.07,2.43,.02,4.04,1.16,4.98,2.92Z"/>
        <path class="cls-1" d="M434.36,554.69c-1.14,.41-2.4,.48-3.55,.12-2.29-.72-3.3-2.56-3.38-4.96-.11-3.39,1.7-5.89,5.21-5.78,3.49,.12,5.09,2.77,5,6.09-.07,2.5-1.43,3.85-3.28,4.52Z"/>
        <path class="cls-1" d="M338.6,565.83c-1.02,.38-2.16,.45-3.23,.21-1.69-.38-3.21-1.54-3.92-3.12-1.68-3.77,1.83-7.46,5.66-7,1.91,.23,3.67,1.54,4.38,3.32,.71,1.79,.32,3.98-1.01,5.36-.53,.55-1.18,.95-1.89,1.22Z"/>
        <path class="cls-1" d="M420.25,564.27c-.13,3.28-1.79,5.55-5.34,5.47-3.31-.08-5.65-1.94-5.63-5.5,.02-3.37,1.92-5.7,5.39-5.72,3.42-.02,5.33,2.08,5.57,5.75Z"/>
        <path class="cls-1" d="M475.8,544.45c-.13,3.28-1.79,5.55-5.34,5.47-3.31-.08-5.65-1.94-5.63-5.5,.02-3.37,1.92-5.7,5.39-5.72,3.42-.02,5.33,2.08,5.57,5.75Z"/>
        <path class="cls-1" d="M225.26,541.38c.7,1.42,.84,3.09,.42,4.62-.91,3.27-3.89,3.63-6.41,3.74-2.82,.13-5.28-2.16-5.03-5.06,.28-3.19,1.78-6.66,5.82-6.57,2.66,.06,4.33,1.47,5.2,3.27Z"/>
        <path class="cls-1" d="M570.02,318.57c1.15,1.9,1.16,4.37-.01,6.26-.98,1.58-2.57,2.44-4.73,2.53-3.42,.14-5.67-1.71-5.79-5.28-.12-3.91,2.19-6.16,5.92-6.09,2.16,.04,3.68,1.03,4.61,2.57Z"/>
        <path class="cls-1" d="M581.99,346.24c1.15,1.9,1.16,4.37-.01,6.26-.98,1.58-2.57,2.44-4.73,2.53-3.42,.14-5.67-1.71-5.79-5.28-.12-3.91,2.19-6.16,5.92-6.09,2.16,.04,3.68,1.03,4.61,2.57Z"/>
        <path class="cls-1" d="M578.39,368.39c1.15,1.9,1.16,4.37-.01,6.26-.98,1.58-2.57,2.44-4.73,2.53-3.42,.14-5.67-1.71-5.79-5.28-.12-3.91,2.19-6.16,5.92-6.09,2.16,.04,3.68,1.03,4.61,2.57Z"/>
        <path class="cls-1" d="M578.49,396.11c1.15,1.9,1.16,4.37-.01,6.26-.98,1.58-2.57,2.44-4.73,2.53-3.42,.14-5.67-1.71-5.79-5.28-.12-3.91,2.19-6.16,5.92-6.09,2.16,.04,3.68,1.03,4.61,2.57Z"/>
        <path class="cls-1" d="M223.92,267.01c3.9,.2,5.83,2.36,5.84,5.69,0,3.32-2.02,5.8-5.48,5.83-3.78,.04-6.1-2.33-5.95-6.16,.14-3.45,2.37-5.25,5.59-5.36Z"/>
        <path class="cls-1" d="M554.29,461.08c-.36,2.34-1.73,3.83-3.8,4.43-3.86,1.11-7.83-2.05-7.66-6.07,.14-3.21,2.43-5.13,5.77-5.26,2.91-.11,4.82,1.48,5.54,4.07,.25,.92,.31,1.89,.16,2.83Z"/>
        <path class="cls-1" d="M342.35,192.62c1.07,1.72,1.23,3.94,.28,5.74s-2.72,2.77-4.94,2.81c-2.91,.06-5.12-1.75-5.32-4.95-.22-3.52,1.64-5.64,5.13-5.92,2.42-.19,3.9,.8,4.85,2.32Z"/>
        <path class="cls-1" d="M508.72,242.28c.55,1.73,.35,3.64-.48,5.26-1.16,2.26-3.18,3.23-6.08,2.74-3.34-.57-5.39-3.05-5.05-6.23,.37-3.44,2.63-5.94,6.62-5.52,2.82,.3,4.34,1.72,4.99,3.75Z"/>
        <path class="cls-1" d="M539.55,490.37c.86,1.57,1,3.49,.35,5.16-.78,1.97-2.4,3.18-4.84,3.36-3.46,.26-5.75-1.76-5.98-5.25-.22-3.46,1.58-5.7,5.21-5.96,2.62-.18,4.28,.87,5.27,2.69Z"/>
        <path class="cls-1" d="M551.02,442.39c-3.59-.32-5.58-2.45-5.43-5.85,.16-3.42,2.54-5.59,5.94-5.43,3.37,.15,5.54,2.39,5.39,5.91-.16,3.53-2.37,5.29-5.9,5.37Z"/>
        <path class="cls-1" d="M390.35,192.32c-.37,.16-.76,.28-1.15,.37-1.46,.35-3.01,.36-4.47,.02-6.61-1.52-2.16-10.62,3.35-9.84,2.52,.36,4.63,2.62,4.82,5.15,.08,1.14-.21,2.33-.96,3.19-.43,.49-.98,.84-1.59,1.1Z"/>
        <path class="cls-1" d="M278.08,226.61c-.8,.43-1.72,.68-2.64,.78-6.83,.74-7.64-8.37-1.02-9.44,1.93-.31,4.03,.47,5.16,2.07,1.13,1.59,1.14,3.94-.09,5.45-.39,.48-.88,.86-1.41,1.15Z"/>
        <path class="cls-1" d="M486.02,226.04c1.15-.27,2.38-.23,3.48,.23,1.98,.82,2.94,2.52,2.81,4.99-.16,3.18-2.1,5.02-5.23,4.94-3.56-.09-5.46-2.25-5.11-5.81,.26-2.61,1.88-3.84,4.05-4.35Z"/>
        <path class="cls-1" d="M526.11,505.8c.72,1.64,.65,3.58-.2,5.16-.97,1.79-2.66,2.75-5.19,2.59-3.13-.2-5-2.07-5.01-5.23,0-3.47,1.89-5.75,5.43-5.66,2.45,.06,4.12,1.2,4.97,3.14Z"/>
        <path class="cls-1" d="M500.74,514.05c1.67-.66,3.6-.51,5.18,.35,1.87,1.02,2.94,2.76,2.74,5.25-.26,3.35-2.34,5.57-5.97,5.28-3.5-.28-5.43-2.41-5.2-5.98,.16-2.54,1.32-4.14,3.24-4.9Z"/>
        <path class="cls-1" d="M249.8,235.78c.83-.19,1.71-.17,2.54,.05,2.31,.61,3.68,2.24,3.63,4.95-.06,3.18-2.08,4.96-5.16,4.94-3.06-.02-5.16-1.65-4.88-5.01,.21-2.57,1.43-4.38,3.87-4.93Z"/>
        <path class="cls-1" d="M529.54,248.33c1.03,1.86,.87,4.17-.2,6.01s-2.65,2.73-5.08,2.55c-3.44-.26-5.58-2.36-5.36-5.93,.22-3.54,2.47-5.41,6-5.27,2.34,.09,3.79,1.11,4.64,2.64Z"/>
        <path class="cls-1" d="M263.58,518.56c1.6-.7,3.46-.68,5.08-.03,2.03,.81,3.18,2.41,3.1,5.08-.11,3.52-2.26,5.66-5.63,5.59-3.31-.07-5.58-2.2-5.58-5.71,0-2.55,1.18-4.12,3.03-4.93Z"/>
        <path class="cls-1" d="M214.59,284.51c1.36-.38,2.84-.28,4.15,.26,2.32,.97,3.82,2.88,3.63,5.77-.23,3.59-2.61,5.81-6.53,5.55-3.54-.23-5.38-2.27-5.32-5.76,.05-3.08,1.36-5.08,4.07-5.83Z"/>
        <path class="cls-1" d="M363.83,575.66c-1.43-.59-2.4-1.59-2.82-3.03-1.26-4.29,2.97-8.46,7.2-7.02,2.09,.71,3.38,2.47,3.35,5.04-.03,2.63-1.39,4.37-3.65,5.14-1.32,.45-2.79,.4-4.08-.13Z"/>
        <path class="cls-1" d="M532.38,265.51c3.01,.36,4.77,2.22,4.75,5.31-.01,3.55-2.19,5.6-5.63,5.38-3.47-.23-5.32-2.64-4.89-6.1,.38-3.03,2.41-4.68,5.77-4.6Z"/>
        <path class="cls-1" d="M535.52,284.99c1.54-.52,3.25-.45,4.73,.2,1.8,.79,2.84,2.26,2.8,4.56-.06,3.48-2.17,5.64-5.64,5.52-3.59-.13-5.19-2.74-5.02-6.08,.12-2.36,1.38-3.61,3.13-4.2Z"/>
        <path class="cls-1" d="M306.32,209.02c1.22,1.71,1.16,4.06,0,5.8-.98,1.47-2.47,2.24-4.5,2.2-3.32-.06-4.74-2.25-4.57-5.34,.17-3.13,1.93-5.04,5.2-4.74,1.8,.16,3.06,.93,3.89,2.08Z"/>
        <path class="cls-1" d="M168.07,438.76c.59-.06,1.17-.2,1.72-.42,1.87-.76,3.34-2.38,4.05-4.28,.72-1.93,.67-4.17-.28-6.01-.95-1.83-2.81-3.2-4.86-3.42-4.26-.45-7.33,4.14-7.24,8.01,.04,1.97,.95,3.96,2.56,5.1,1.16,.83,2.63,1.16,4.06,1.02Z"/>
        <path class="cls-1" d="M211.34,523.24c.44,1.5,.45,3.12,.03,4.63-.87,3.1-3.15,4.74-6.86,4.59-4.02-.17-6.65-2.39-6.74-6.61-.09-4.46,2.13-7.21,6.79-7.3,3.78-.07,5.91,1.69,6.78,4.69Z"/>
        <path class="cls-1" d="M312.64,546.01c1.53,2.07,1.57,4.99,.09,7.09-.93,1.31-2.3,2.13-4.31,2.22-3.53,.16-5.71-1.9-5.88-5.28-.18-3.7,1.74-6.23,5.77-6.16,2.04,.04,3.4,.87,4.33,2.13Z"/>
        <path class="cls-1" d="M361.7,198.49c-1.94,.99-4.33,.82-6.14-.4-1.52-1.02-2.42-2.56-2.24-4.9,.27-3.55,2.52-5.36,6-5.16,3.52,.21,5.47,2.36,5.22,5.9-.16,2.28-1.21,3.72-2.84,4.56Z"/>
        <path class="cls-1" d="M488.43,533.33c-1.21,.48-2.55,.57-3.82,.34-2.31-.42-3.88-1.7-3.86-4.39,.02-2.89,1.63-5.37,4.88-5.43,2.77-.05,5.76,.9,6.08,4.11,.27,2.72-1.09,4.51-3.28,5.37Z"/>
        <path class="cls-1" d="M286.24,585.29c.72,1.92,.68,4.08-.09,5.98-1.08,2.66-3.27,4.29-6.51,4.39-4.77,.14-7.81-2.97-7.76-7.59,.06-4.62,3.1-7.62,7.95-7.31,3.26,.21,5.4,1.85,6.4,4.53Z"/>
        <path class="cls-1" d="M280.71,545.56c-1.26,.39-2.65,.31-3.83-.26-2.09-1-3.1-2.96-2.87-5.57,.26-2.92,2.11-5.14,5.29-4.92,3.52,.24,5.15,2.64,4.88,6.09-.19,2.46-1.38,4-3.47,4.66Z"/>
        <path class="cls-1" d="M564.44,426.31c-3.59-.32-5.58-2.45-5.43-5.85,.16-3.42,2.54-5.59,5.94-5.43,3.37,.15,5.54,2.39,5.39,5.91-.16,3.53-2.37,5.29-5.9,5.37Z"/>
        <path class="cls-1" d="M457.7,546.44c.5,1.33,.43,2.83-.5,4.19-1.94,2.84-7.69,4.61-9.85,1.07-.91-1.5-.75-3.99,0-5.52,1.01-2.11,3.39-3.49,5.72-3.28,2.13,.19,3.94,1.68,4.64,3.54Z"/>
        <path class="cls-1" d="M170.43,478.17c.07-1.19,.39-2.34,.99-3.31,1.31-2.11,4.55-2.81,6.85-2.29,2.28,.51,4.26,2.24,5.01,4.45s.23,4.82-1.38,6.51c-1.02,1.08-2.41,1.77-3.85,2.12-1.24,.3-2.58,.36-3.77-.1-1.4-.54-2.45-1.76-3.08-3.12-.58-1.25-.87-2.78-.78-4.26Z"/>
        <path class="cls-1" d="M153.89,402.02c.09-1.45,.48-2.87,1.21-4.05,1.6-2.59,5.58-3.44,8.4-2.8,2.79,.63,5.21,2.74,6.14,5.45s.28,5.9-1.69,7.98c-1.25,1.32-2.95,2.16-4.71,2.59-1.52,.37-3.16,.44-4.62-.12-1.71-.67-3-2.16-3.78-3.83-.71-1.53-1.06-3.4-.95-5.22Z"/>
        <path class="cls-1" d="M172.07,349.62c.07-1.19,.39-2.34,.99-3.31,1.31-2.11,4.55-2.81,6.85-2.29,2.28,.51,4.26,2.24,5.01,4.45s.23,4.82-1.38,6.51c-1.02,1.08-2.41,1.77-3.85,2.12-1.24,.3-2.58,.36-3.77-.1-1.4-.54-2.45-1.76-3.08-3.12-.58-1.25-.87-2.78-.78-4.26Z"/>
        <path class="cls-1" d="M554.92,300.86c1.15,1.9,1.16,4.37-.01,6.26-.98,1.58-2.57,2.44-4.73,2.53-3.42,.14-5.67-1.71-5.79-5.28-.12-3.91,2.19-6.16,5.92-6.09,2.16,.04,3.68,1.03,4.61,2.57Z"/>
        <path class="cls-1" d="M249.31,261.6c-.46,3.25-2.03,5.47-5.67,5.36-3.09-.1-5.08-1.73-5.19-4.92-.12-3.43,1.68-5.79,5.13-5.94,3.44-.16,5.31,2.04,5.73,5.51Z"/>
        <path class="cls-1" d="M232.17,488.73c1.01,1.89,.88,4.2-.15,6.08-.98,1.79-2.6,2.73-5,2.52-3.52-.31-5.29-2.79-5-6.19,.26-3.12,2.5-4.86,5.53-4.91,2.37-.04,3.8,.98,4.62,2.5Z"/>
        <path class="cls-1" d="M414.47,193.73c1.27-.53,2.7-.6,4.03-.28,2.44,.6,3.74,2.33,3.79,5.23,.05,3.13-1.47,5.37-4.69,5.61-3.45,.26-5.9-1.62-6.24-5.07-.27-2.74,.95-4.6,3.11-5.49Z"/>
        <path class="cls-1" d="M401.63,568.25c.71,1.61,.61,3.49-.17,5.07-.94,1.92-2.59,3.05-5.2,2.94-3.55-.15-5.5-2.3-5.37-5.78,.13-3.5,2.4-5.55,5.82-5.39,2.4,.11,4.08,1.26,4.92,3.17Z"/>
        <path class="cls-1" d="M549.48,477.54c-.44,2.81-2.33,4.41-5.15,4.67-3.07,.29-5.9-1.99-6.27-5.05-.48-3.97,1.96-6.38,5.71-6.52,2.91-.11,4.82,1.48,5.54,4.07,.25,.92,.31,1.89,.16,2.83Z"/>
        <path class="cls-1" d="M249.62,512c.44,1.28,.46,2.69,.02,3.97-.77,2.25-2.51,3.56-5.21,3.53-3.55-.04-5.23-2.42-5.16-5.85,.07-3.18,1.95-4.91,5.07-5.07,2.9-.15,4.51,1.19,5.27,3.42Z"/>
        <path class="cls-1" d="M322.08,202.13c-1.07,1.94-2.89,2.79-5.45,2.46-3.07-.4-5.34-3.17-4.92-6.24,.47-3.37,2.97-5.16,6.28-4.79,2.45,.27,3.93,1.6,4.57,3.51,.56,1.66,.36,3.52-.48,5.05Z"/>
        <path class="cls-1" d="M441.51,199.23c2.01-1.65,4.95-1.73,7.12-.31,1.41,.92,2.2,2.37,2.22,4.5,.03,3.55-1.88,5.64-5.47,5.67-3.54,.03-5.72-2.06-5.8-5.48-.04-1.97,.72-3.4,1.93-4.39Z"/>
        <path class="cls-1" d="M203.8,300.85c1.36-.38,2.84-.28,4.15,.26,2.32,.97,3.82,2.88,3.63,5.77-.23,3.59-2.61,5.81-6.53,5.55-3.54-.23-5.38-2.27-5.32-5.76,.05-3.08,1.36-5.08,4.07-5.83Z"/>
      </g>
      <g>
        <path class="cls-1" d="M566.91,583.45c6.43,.04,8.46,5.23,8.71,8.68,.4,5.6-5.51,7.19-9.87,7.45-4.34,.27-6.53-3.51-6.43-7.84,.13-5.23,3.32-7.7,7.6-8.29Z"/>
        <path class="cls-1" d="M460.43,640.4c.47-.05,.95-.06,1.42-.04,3.9,.21,8.46,2.77,8.37,7.14-.14,6.32-9.44,9.09-14.03,5.72-3.23-2.37-3.68-7.33-1-10.28,1.34-1.47,3.26-2.34,5.24-2.55Z"/>
        <g>
          <path class="cls-1" d="M658.61,437.96c.15,1.79-.23,3.6-1.28,5.14-2.96,4.34-10.39,3.91-13.67,.13-4.17-4.81-.7-12.79,5.34-13.83,5.1-.88,9.22,3.79,9.61,8.56Z"/>
          <path class="cls-1" d="M154.69,494.7c.75,1.88,.67,3.97,.09,5.91-1.03,3.43-2.96,6.12-7.3,6.04-5.31-.1-8.76-3.4-8.59-8.86,.16-5.18,3.75-7.78,8.74-7.64,3.54,.1,5.92,1.71,7.06,4.55Z"/>
          <path class="cls-1" d="M264.89,628.76c.86,2.09,.86,4.47,.08,6.6-1.15,3.13-3.51,5.08-7.39,5.15-5.47,.09-8.64-3.28-8.55-8.6,.09-5,3.5-7.96,8.42-7.94,3.77,.01,6.21,1.83,7.43,4.79Z"/>
          <path class="cls-1" d="M620.87,495.08c-.64-1.93-.77-4.05-.14-5.98,1.06-3.29,3.73-5.13,7.52-5.32,5.41-.28,8.76,2.91,8.93,8.39,.16,5.17-3.03,8.13-7.98,8.5-4.61,.34-7.12-1.96-8.32-5.58Z"/>
          <path class="cls-1" d="M179.59,574.29c2.42-1.43,5.44-1.65,8.04-.57,2.95,1.22,4.63,3.71,4.86,7.23,.36,5.42-2.94,8.84-8.26,9.08-4.99,.22-8.31-2.84-8.52-7.88-.16-3.71,1.3-6.32,3.89-7.85Z"/>
          <path class="cls-1" d="M584.59,576.25c-5.22-.44-8.21-3.45-8.14-8.4,.08-5.33,3.36-8.74,8.83-8.5,4.94,.22,8.14,3.53,8.15,8.46,0,5.44-3.41,8.27-8.84,8.44Z"/>
          <path class="cls-1" d="M120.55,371.72c-1.77,.72-3.78,.87-5.61,.34-2.99-.86-5.4-3.46-6.02-6.5-.41-1.98-.07-4.14,1.08-5.8,1.29-1.88,3.46-2.99,5.68-3.52,1.96-.47,4.07-.55,5.94,.2,5.1,2.03,5.3,9.71,1.88,13.31-.82,.87-1.84,1.54-2.94,1.98Z"/>
          <path class="cls-1" d="M596.69,547.35c.14-5.01,2.3-8.63,7.61-8.75,5.48-.12,8.77,3.12,8.71,8.61-.05,4.93-2.77,8.44-8.06,8.32-4.96-.12-8.09-2.83-8.26-8.17Z"/>
          <path class="cls-1" d="M512.52,624.89c-.56,0-1.12-.05-1.66-.13-2.06-.32-4.1-1.24-5.4-2.87-1.16-1.45-1.66-3.37-1.58-5.23,.23-5.69,5.08-9.6,10.75-7.96,3.23,.93,5.81,3.87,6.19,7.21,.38,3.34-1.53,6.84-4.58,8.23-1.16,.53-2.43,.76-3.71,.76Z"/>
          <path class="cls-1" d="M162.7,529.76c.13,6.3-2.54,9.52-7.63,9.67-5.44,.16-8.6-3.13-8.69-8.61-.08-5.33,3.31-7.95,8.23-8.12,5.26-.18,7.79,3.03,8.08,7.05Z"/>
          <path class="cls-1" d="M366.62,659.6c2.91-1.6,6.55-1.45,9.35,.33,2.26,1.44,3.56,3.66,3.5,6.96-.09,5.55-3.48,8.8-8.78,8.6-5.38-.2-8.27-3.79-7.96-9.34,.18-3.37,1.71-5.35,3.9-6.55Z"/>
          <path class="cls-1" d="M122.89,461.74c-3.27-.27-6.74-2.58-6.64-7.87,.1-5.51,3.59-8.54,8.95-8.31,5.03,.21,8.07,3.49,7.83,8.55-.23,4.94-2.99,8.03-10.14,7.63Z"/>
          <path class="cls-1" d="M343.39,644.38c1.42-.38,2.92-.46,4.35-.11,3.9,.97,5.33,4.25,5.34,8.27,.02,4.57-2.63,7.95-7.35,8.08-5.16,.15-7.79-3.35-8.1-8.25-.29-4.58,2.03-6.98,5.76-7.99Z"/>
          <path class="cls-1" d="M105.29,402.44c-5.79,.1-8.31-2.36-8.19-7.37,.11-4.59,2.02-8.07,7.01-8.17,4.97-.1,8.27,2.8,8.61,7.78,.37,5.45-3.26,7.51-7.43,7.76Z"/>
          <path class="cls-1" d="M323.98,643.83c.29,1.54,.24,3.15-.23,4.64-1.11,3.5-3.92,5.43-8.1,5.35-4.2-.07-6.84-2.19-7.61-5.74-1.37-6.28,4.75-11.87,10.93-10.09,2.78,.8,4.44,2.76,5.02,5.83Z"/>
          <path class="cls-1" d="M115.57,334.72c.07-5.83,2.73-8.25,7.56-8.39,5.42-.15,8.11,2.94,7.98,7.97-.12,4.43-2.26,7.89-7.48,7.58-4.95-.29-8.2-2.51-8.05-7.17Z"/>
          <path class="cls-1" d="M408.05,656.32c.38,1.56,.39,3.21-.01,4.76-.94,3.57-3.55,5.49-7.91,5.44-4.63-.05-7.1-3.04-7.23-7.19-.16-5.03,3.02-8.2,7.98-8.41,4.01-.17,6.32,1.93,7.18,5.4Z"/>
          <path class="cls-1" d="M119.8,419.31c.12,.22,.22,.45,.31,.68,1.36,3.37,.03,7.61-3.01,9.6-3.04,1.99-7.46,1.5-9.99-1.1-2.11-2.16-2.72-5.59-1.68-8.4,1.2-3.24,5.1-4.3,8.26-4.19,1.41,.05,2.85,.32,4.03,1.09,.88,.57,1.58,1.4,2.07,2.33Z"/>
          <path class="cls-1" d="M124.53,487.97c-1.86,.73-3.97,.78-5.72-.14-2.12-1.11-3.43-3.48-3.54-5.87-.23-4.98,4.43-10.54,9.73-8.75,2.56,.86,4.45,3.34,4.79,6.02,.33,2.68-.82,5.46-2.84,7.26-.7,.63-1.53,1.13-2.41,1.48Z"/>
          <path class="cls-1" d="M542.17,607.78c-2.34,1.36-5.34,1.43-7.94,.6-1.38-.44-2.72-1.15-3.64-2.27-1.75-2.12-1.78-6.01-.19-8.27,1.72-2.44,5.14-2.64,7.83-2.25,2.67,.38,5.5,1.46,6.77,3.83,1.41,2.64,.24,6.18-2.18,7.94-.21,.15-.43,.29-.65,.42Z"/>
          <path class="cls-1" d="M293.01,633.23c1.15,2.45,1.39,5.28,.64,7.88-.89,3.09-2.66,4.97-6.5,4.91-4.9-.07-7.51-3.92-7.63-7.61-.13-4.04,1.83-8.73,7.23-8.95,3.58-.15,5.25,1.63,6.25,3.77Z"/>
          <path class="cls-1" d="M479.12,629.56c.41-8.16,13.55-8.61,15.3-1.08,1.47,6.3-7.41,11.41-12.41,7.87-2.2-1.56-3.03-4.18-2.9-6.78Z"/>
          <path class="cls-1" d="M429.81,148.3c.7,1.91,.65,4.06-.14,5.93-1.09,2.58-3.24,3.95-6.73,3.74-4.1-.25-6.7-2.68-6.77-6.67-.08-4.4,2.56-7.04,7.11-7.08,3.46-.03,5.56,1.46,6.53,4.08Z"/>
          <path class="cls-1" d="M499.31,172.84c.88,1.78,.98,3.88,.36,5.77-.92,2.82-2.97,4.58-6.43,4.71-4.59,.18-7.12-2.61-7.27-7.02-.14-4.15,2.43-6.63,6.45-7,3.4-.31,5.66,1.03,6.89,3.53Z"/>
          <path class="cls-1" d="M231.32,189.52c2.09-1.26,4.71-1.36,6.96-.41,2.48,1.05,3.89,3.11,4.04,6.27,.19,4.15-2.16,6.77-6.28,6.98-4.26,.22-7.51-1.69-7.8-6.38-.19-3.12,1.01-5.21,3.08-6.46Z"/>
          <path class="cls-1" d="M147.44,324.03c-4.12-.49-6.25-2.72-6.45-6.39-.22-3.99,3.11-7.36,7.11-7.34,4.49,.02,6.95,2.72,6.93,7.23,0,3.34-1.58,5.29-3.76,6.14-1.21,.47-2.54,.52-3.83,.36Z"/>
          <path class="cls-1" d="M420.16,594.79c1.85-.65,3.93-.62,5.72,.19,2.43,1.1,3.86,3.21,3.77,6.67-.11,4.24-2.57,6.5-6.6,6.64-4.51,.16-7.2-2.4-7.25-6.86-.04-3.41,1.5-5.64,4.37-6.65Z"/>
          <path class="cls-1" d="M439.24,645.99c0,2.25-.46,4.49-2.1,5.93-.97,.85-2.24,1.3-3.51,1.53-1.57,.28-3.22,.25-4.71-.31-2.74-1.03-4.64-3.96-4.47-6.88,.21-3.56,3.96-6.27,7.15-7.05,4.1-1,7.62,2.89,7.63,6.77Z"/>
          <path class="cls-1" d="M311.23,161.78c.73,1.95,.66,4.16-.22,6.05-1.24,2.66-3.62,4.09-7.22,3.91-4.45-.22-6.99-3-6.95-7.32,.05-4.39,3.09-7.2,7.17-7.3,3.49-.09,6.06,1.56,7.22,4.66Z"/>
          <path class="cls-1" d="M600.27,279.83c.66,1.93,.54,4.09-.33,5.94-1.2,2.56-3.42,4-6.78,3.71-4.53-.38-6.66-3.65-6.39-7.9,.26-4.09,3.12-6.36,7.15-6.2,3.36,.13,5.44,1.76,6.36,4.45Z"/>
          <path class="cls-1" d="M167.14,264.85c2.07-1.28,4.69-1.29,6.93-.34,2.62,1.12,4.03,3.21,3.87,6.59-.19,4.14-2.66,6.73-6.79,6.63-4.42-.1-7.16-2.8-7.02-7.33,.08-2.66,1.24-4.46,3.02-5.56Z"/>
          <path class="cls-1" d="M516.82,176.81c.61,.02,1.22,.12,1.81,.3,3.52,1.09,5.81,5.18,4.89,8.75s-4.9,6.05-8.51,5.3c-1.41-.29-2.75-1.04-3.59-2.21-2.26-3.14-1.14-9.78,2.45-11.54,.91-.45,1.93-.64,2.95-.61Z"/>
          <path class="cls-1" d="M579.05,234.52c-.36,4.46-2.71,7.24-7.23,7.04-3.76-.16-6.27-2.25-6.79-5.65-.75-4.93,3.78-9.28,8.67-8.31,3.23,.64,5.05,3.11,5.34,6.93Z"/>
          <path class="cls-1" d="M371.8,144.53c-1.33-.07-2.63-.37-3.65-1.19-1.08-.87-1.69-2.23-1.88-3.6-.55-3.99,1.52-7.86,5.69-8.61,2.41-.43,5.01,.48,6.64,2.31s2.21,4.53,1.49,6.87c-.31,1-.84,1.94-1.63,2.63-1.31,1.14-3.15,1.45-4.89,1.56-.59,.04-1.19,.06-1.78,.03Z"/>
          <path class="cls-1" d="M603.23,353.95c.07-2.69,1.4-5.41,3.6-6.91,1.28-.88,2.92-1.29,4.43-.96,2.34,.52,4,2.68,4.82,4.93,.95,2.6,.99,5.71-.65,7.94-1.38,1.87-3.85,2.85-6.16,2.51-2.3-.34-4.36-1.93-5.35-4.04-.51-1.08-.73-2.27-.69-3.47Z"/>
          <path class="cls-1" d="M208.51,238.71c-2.45,1.51-5.61,1.45-8.08-.01-2.07-1.22-3.24-3.18-3.08-6.11,.25-4.42,3.19-7,7.58-6.77,4.01,.2,6.37,2.85,6.5,6.97,.09,2.98-1.08,4.8-2.91,5.93Z"/>
          <path class="cls-1" d="M163.59,288.63c.44,1.48,.42,3.07-.03,4.55-.78,2.59-2.6,4.41-6.01,4.56-4.7,.2-7.18-2.59-7.21-7.01-.03-4.16,2.64-6.66,6.76-6.61,3.26,.04,5.59,1.5,6.49,4.52Z"/>
          <path class="cls-1" d="M348.8,136.12c4.31,.25,6.68,2.74,6.62,7.18-.05,4.19-2.6,6.4-6.69,6.42-4.01,.02-6.62-1.82-6.73-6.24-.12-4.54,1.92-7.08,6.8-7.36Z"/>
          <path class="cls-1" d="M333.51,151.78c.41,1.44,.4,2.99-.04,4.42-.88,2.87-2.93,4.42-6.38,4.44-4.69,.03-6.98-2.44-6.87-7.06,.1-4.18,2.26-6.6,6.55-6.56,3.74,.03,5.89,1.8,6.74,4.76Z"/>
          <path class="cls-1" d="M577.79,522.11c.15,5.86-6.3,10.94-11.07,5.79-3.4-3.67-2.41-10.5,2.67-12.04,4.58-1.38,8.28,1.66,8.4,6.25Z"/>
          <path class="cls-1" d="M275.92,163.85c1.44-.52,3.02-.62,4.52-.31,3.02,.63,4.97,2.55,5.2,5.83,.3,4.29-2.13,7.44-6.61,7.57-4.34,.13-7.22-2.5-7.32-6.95-.08-3.29,1.65-5.22,4.22-6.14Z"/>
          <path class="cls-1" d="M608.05,425.05c.55,2.05,.34,4.54-1.11,6.29-1.1,1.33-2.82,2.02-4.54,2.23-1.74,.21-3.61-.08-5.02-1.11-1.44-1.05-2.27-2.77-2.58-4.52-.28-1.57-.15-3.29,.71-4.63,2-3.11,7.08-4.66,10.07-2.21,1.19,.98,2.05,2.41,2.47,3.96Z"/>
          <path class="cls-1" d="M514.23,564.05c4.26-.3,6.95,1.79,6.94,5.99,0,3.95-2.42,6.76-6.58,6.86-4.44,.11-7.29-2.44-7.39-6.91-.1-4.41,2.81-6.13,7.03-5.94Z"/>
          <path class="cls-1" d="M494.16,592.27c-4.17,0-6.59-2.37-6.01-5.93,.59-3.59,2.48-7.44,7.35-6.88,3.89,.45,6.51,2.87,6.44,6.92-.09,5.06-4.12,5.49-7.78,5.88Z"/>
          <path class="cls-1" d="M577.94,470.93c0-2.19,.62-4.34,2.54-5.68,2.9-2.03,8.16-.83,10.19,2.01,.99,1.38,.98,3.24,.65,4.91-.27,1.36-.75,2.72-1.71,3.72-1.28,1.34-3.24,1.83-5.09,1.87-1.33,.03-2.7-.16-3.84-.85-1.6-.98-2.49-2.86-2.68-4.73-.04-.41-.07-.83-.07-1.24Z"/>
          <path class="cls-1" d="M538.18,550.3c.54,1.27,.58,2.71,.27,4.05-.73,3.26-2.95,5.03-6.36,5.07-4.39,.05-7.14-2.45-7.28-7.06-.14-4.44,3-5.32,6.52-5.48,3.29-.15,5.76,.84,6.85,3.42Z"/>
          <path class="cls-1" d="M252.68,174.26c2.17-1.15,4.85-1.15,7,.04s3.38,3.21,3.35,6.37c-.03,4.9-3.67,6.7-7.46,6.93-4.11,.25-6.2-2.96-6.31-6.9-.09-3.13,1.15-5.23,3.41-6.43Z"/>
          <path class="cls-1" d="M546.91,215.36c3.11-4.04,9.82-2.59,11,2.38,.17,.69,.25,1.41,.25,2.1,0,3-1.98,5.96-6.4,5.78-4.16-.17-6.2-2.12-6.2-5.88,0-1.77,.47-3.24,1.35-4.38Z"/>
          <path class="cls-1" d="M476.16,585.88c.02,1.59-.58,3.23-1.57,4.5-1.33,1.71-3.35,2.87-5.49,3.17-1.49,.21-3.09,0-4.32-.89-1.42-1.02-2.15-2.84-2.13-4.59,.05-4.65,4.26-8.91,9.05-7.65,1.62,.42,3.09,1.49,3.85,2.97,.4,.78,.59,1.63,.6,2.5Z"/>
          <path class="cls-1" d="M223.24,212.89c2.9-.14,5.83,1.06,6.5,3.89,.58,2.48-.36,5.66-2.62,7.03-1.25,.76-2.82,.8-4.26,.5-2.39-.5-4.75-2.05-5.66-4.4-1.64-4.27,2.18-6.84,6.04-7.03Z"/>
          <path class="cls-1" d="M609.29,449.65c5.87-.36,10.14,7.6,3.76,10.47-2.29,1.04-5.18,.91-7.15-.66-3.94-3.15-1.49-9.45,3.31-9.81,.02,0,.05,0,.07,0Z"/>
          <path class="cls-1" d="M611.73,312.76c1.28-.1,2.65,.2,3.93,1.05,1.15,.76,1.91,2.03,2.18,3.38s.07,2.77-.43,4.06c-.42,1.1-1.08,2.15-2.05,2.82-1.13,.78-2.6,.99-3.95,.75-1.7-.31-3.26-1.3-4.26-2.71-3.03-4.27,.35-9.01,4.58-9.34Z"/>
          <path class="cls-1" d="M613.57,521.7c-.24,.13-.49,.25-.75,.35-3.26,1.32-7.32,.3-9.58-2.39-5.09-6.07,.78-15.47,8.47-13.55,3.41,.85,6.1,4.06,6.35,7.57,.23,3.23-1.64,6.5-4.48,8.02Z"/>
          <path class="cls-1" d="M661.91,465.58c.74,2.03,.77,4.29,.05,6.33-1.14,3.23-3.6,5.1-7.68,4.97-5.06-.16-8.11-2.96-8.03-8.23,.08-5.22,3.07-8.04,8.2-8.05,4.01,0,6.33,1.91,7.45,4.98Z"/>
          <path class="cls-1" d="M243.01,607.71c1.25,2.35,1.31,5.18,.32,7.65-1.09,2.73-3.2,4.44-6.66,4.41-5.16-.05-9.2-3.41-9.2-8.34,0-3.69,2.81-8.02,7.55-8.09,3.74-.05,6.48,1.54,7.99,4.37Z"/>
          <path class="cls-1" d="M541.9,198.02c1.53,2.42,1.45,5.58-.04,8.02-1.19,1.96-3.07,3.16-6.02,3.06-4.48-.15-7.04-2.93-6.97-7.21,.07-4.32,2.95-7.1,7.25-7,2.67,.06,4.59,1.23,5.79,3.13Z"/>
          <path class="cls-1" d="M196.15,250.36c.71,1.92,.65,4.09-.19,5.96-1.18,2.62-3.47,4.07-6.75,3.86-4.35-.27-7.02-3.31-6.65-7.71,.33-3.87,2.76-6.56,7.05-6.43,3.44,.11,5.56,1.65,6.54,4.32Z"/>
          <path class="cls-1" d="M440.89,606.55c-.13-3.98,2.95-7.35,7.37-7.33,1.84,.01,3.74,.53,5.09,1.78,1.4,1.3,2.05,3.25,2.12,5.15,.06,1.56-.26,3.15-1.06,4.49-1.35,2.27-4.1,3.61-6.73,3.34s-5.03-2.07-6.09-4.49c-.43-.99-.66-1.99-.69-2.95Z"/>
          <path class="cls-1" d="M476.45,155.11c2.18,1.22,3.24,3.41,3.18,6.45-.07,3.57-2.95,6.5-6.51,6.51-4.14,0-6.64-2.31-6.72-6.54-.06-3.57,1.58-5.69,4.36-6.73,1.85-.69,3.97-.65,5.69,.32Z"/>
          <path class="cls-1" d="M402.23,134.66c6.48,.71,6.49,10.58,0,11.25-.41,.04-.84,.05-1.28,0-3.4-.3-6.49-2.55-5.89-6.33,.46-2.88,2.81-5.09,6.46-4.97,.25,0,.49,.02,.72,.05Z"/>
          <path class="cls-1" d="M173.16,544.41c4.8-.13,7.34,2.77,7.48,7.42,.16,5.45-2.85,8.8-8.36,8.95-5.13,.14-8.16-2.87-8.49-7.94-.41-6.31,3.5-8.49,9.37-8.42Z"/>
          <path class="cls-1" d="M394.61,600.14c2.29-1.73,5.44-1.81,7.98-.48,2.21,1.16,3.46,3.14,3.47,6.11,.03,4.52-2.78,7.21-7.18,7.18-4.01-.02-6.62-2.63-6.85-6.71-.16-2.84,.86-4.81,2.58-6.11Z"/>
          <path class="cls-1" d="M579.52,493.92c-.09,.46-.25,.9-.46,1.32-2.02,3.89-8.46,4.09-11.38,1.17-3.56-3.57-.64-10.37,4-11.19,1.94-.34,4.02,.3,5.42,1.68,1.72,1.69,2.92,4.55,2.42,7.02Z"/>
          <path class="cls-1" d="M207.59,607.05c-4.99-.52-9.2-2.62-9.01-8.2,.17-4.93,3.7-7.96,8.76-7.74,5.11,.23,8.03,3.64,8,8.58-.03,4.57-2.32,7.81-7.75,7.36Z"/>
          <path class="cls-1" d="M583.87,259.57c1.06,2.25,.92,4.94-.33,7.09-1.27,2.19-3.33,3.5-6.45,3.41-4.41-.12-7.35-2.74-7.33-7.12,.03-4.77,3.06-7.52,7.93-7.26,3.08,.16,5.08,1.57,6.17,3.88Z"/>
          <path class="cls-1" d="M619.39,389.35c1.06,2.25,.92,4.94-.33,7.09s-3.33,3.5-6.45,3.41c-4.41-.12-7.35-2.74-7.33-7.12,.03-4.77,3.06-7.52,7.93-7.26,3.08,.16,5.08,1.57,6.17,3.88Z"/>
          <path class="cls-1" d="M551.29,543.27c-4.78-.63-7.42-2.96-7.21-7.52,.18-4.08,2.63-6.7,6.71-6.68,4.27,.02,7.37,2.39,7.38,6.95,.01,4.5-2.99,6.63-6.88,7.25Z"/>
          <path class="cls-1" d="M450.2,164.08c-2.24,1.11-4.95,1.04-7.13-.19-2.18-1.24-3.44-3.28-3.23-6.47,.27-4.12,2.82-6.53,6.87-6.63,4.58-.11,7.28,2.78,7.27,7.08,0,3-1.46,5.05-3.79,6.21Z"/>
        </g>
      </g>
    </g>
  </g>
</svg>